<svg width="19" height="19" viewBox="0 0 19 19" fill="none" xmlns="http://www.w3.org/2000/svg">
<path d="M16.686 5.366C16.4849 5.13165 16.2122 5 15.9278 5C15.6435 5 15.3708 5.13165 15.1697 5.366L9.49353 11.9826L3.81739 5.366C3.61513 5.13829 3.34424 5.01229 3.06307 5.01514C2.78189 5.01799 2.51292 5.14946 2.31409 5.38123C2.11527 5.613 2.00248 5.92654 2.00004 6.2543C1.9976 6.58206 2.10569 6.89783 2.30103 7.1336L8.73535 14.634C8.93645 14.8684 9.20917 15 9.49353 15C9.77788 15 10.0506 14.8684 10.2517 14.634L16.686 7.1336C16.8871 6.89917 17 6.58127 17 6.2498C17 5.91833 16.8871 5.60042 16.686 5.366Z" fill="#BC4749"/>
</svg>
